<svg 
 xmlns="http://www.w3.org/2000/svg"
 xmlns:xlink="http://www.w3.org/1999/xlink"
 width="1264px" height="966px">
<path fill-rule="evenodd"  fill="rgb(0, 0, 0)"
 d="M462.000,2.000 C509.673,0.897 550.513,14.686 560.000,53.000 C592.337,52.580 629.556,44.738 665.000,50.000 C678.665,50.667 692.335,51.333 706.000,52.000 C710.666,41.668 715.334,31.332 720.000,21.000 C747.331,15.846 769.307,-4.723 806.000,2.000 C886.673,16.782 966.303,42.958 1028.000,79.000 C1049.586,91.610 1083.725,103.248 1098.000,123.000 C1113.160,143.977 1122.070,168.992 1134.000,193.000 C1174.045,273.586 1201.742,366.695 1226.000,462.000 C1245.870,540.065 1288.003,721.549 1246.000,797.000 C1233.335,809.332 1220.665,821.668 1208.000,834.000 C1130.272,895.509 1041.340,934.364 927.000,960.000 C883.346,969.788 826.515,966.217 795.000,947.000 C787.334,936.334 779.666,925.666 772.000,915.000 C764.996,905.246 754.516,898.189 752.000,884.000 C678.523,894.562 587.410,894.602 514.000,884.000 C511.804,896.926 502.339,903.177 496.000,912.000 C487.668,923.666 479.333,935.335 471.000,947.000 C442.341,965.840 380.076,969.752 339.000,960.000 C220.550,931.878 83.147,884.423 22.000,800.000 C-20.978,740.662 12.545,578.421 29.000,509.000 C54.513,401.361 82.801,303.695 123.000,212.000 C134.410,185.974 153.764,132.450 174.000,117.000 C230.399,73.939 303.825,45.722 379.000,22.000 C402.523,14.577 440.016,11.748 462.000,2.000 ZM478.000,84.000 C453.669,88.666 429.331,93.334 405.000,98.000 C346.309,117.237 273.457,145.232 233.000,183.000 C211.926,202.673 186.791,272.814 174.000,304.000 C127.371,417.686 84.514,580.201 83.000,735.000 C100.332,751.665 117.668,768.335 135.000,785.000 C184.526,823.266 239.265,847.843 308.000,868.000 C325.462,873.121 390.476,891.062 410.000,882.000 C422.665,864.335 435.335,846.665 448.000,829.000 C376.986,809.351 272.785,740.432 236.000,687.000 C257.331,700.999 278.669,715.001 300.000,729.000 C340.417,753.002 387.975,770.387 437.000,785.000 C569.671,824.546 765.830,811.885 882.000,768.000 C916.481,754.974 951.107,738.623 981.000,720.000 C997.665,708.668 1014.335,697.332 1031.000,686.000 C986.843,743.783 896.341,807.573 817.000,829.000 C830.999,847.332 845.001,865.669 859.000,884.000 C967.647,884.902 1064.271,833.446 1127.000,786.000 C1140.283,775.953 1181.696,746.076 1183.000,728.000 C1181.333,707.002 1179.666,685.998 1178.000,665.000 C1173.000,628.670 1167.999,592.330 1163.000,556.000 C1140.772,446.925 1112.363,349.330 1073.000,260.000 C1061.866,234.734 1050.989,207.207 1035.000,186.000 C1022.685,169.665 996.038,159.670 978.000,149.000 C925.655,118.038 860.670,87.385 783.000,84.000 C779.334,92.332 775.666,100.667 772.000,109.000 C846.465,118.923 969.346,184.300 1005.000,232.000 C973.670,217.001 942.330,201.999 911.000,187.000 C862.970,166.397 810.305,153.357 753.000,142.000 C724.336,139.667 695.664,137.333 667.000,135.000 C636.601,130.332 593.829,131.072 564.000,136.000 C482.659,149.438 413.742,161.809 348.000,190.000 C332.454,196.666 270.631,232.756 260.000,231.000 C267.333,224.667 274.667,218.333 282.000,212.000 C302.331,197.335 322.669,182.665 343.000,168.000 C388.370,139.665 438.347,127.234 495.000,108.000 C495.000,107.667 495.000,107.333 495.000,107.000 C491.000,99.334 487.000,91.666 483.000,84.000 C481.334,84.000 479.666,84.000 478.000,84.000 ZM462.000,429.000 C589.226,426.434 595.324,616.968 479.000,639.000 C411.932,651.703 362.235,566.020 382.000,501.000 C391.086,471.109 411.935,444.809 440.000,434.000 C447.333,432.333 454.667,430.666 462.000,429.000 ZM785.000,429.000 C831.668,433.141 860.457,446.954 877.000,483.000 C910.024,554.959 868.229,627.235 804.000,639.000 C741.372,650.472 693.263,575.448 704.000,516.000 C710.411,480.506 731.093,448.161 763.000,435.000 C770.333,433.000 777.667,431.000 785.000,429.000 ZM468.000,474.000 C448.411,481.165 434.229,485.638 427.000,504.000 C410.687,545.437 432.551,604.805 483.000,593.000 C531.603,581.627 531.763,476.538 468.000,474.000 ZM793.000,474.000 C773.050,481.305 756.903,486.948 751.000,507.000 C738.613,549.078 757.549,604.763 808.000,593.000 C856.804,581.621 856.665,476.565 793.000,474.000 Z"/>
</svg>