<svg
 xmlns="http://www.w3.org/2000/svg"
 xmlns:xlink="http://www.w3.org/1999/xlink"
 width="897px" height="874px">
<path fill-rule="evenodd"  fill="rgb(0, 0, 0)"
 d="M420.000,1.000 C684.949,-3.327 839.642,150.279 887.000,364.000 C930.622,560.863 817.326,731.542 714.000,807.000 C692.756,822.514 604.023,879.743 568.000,873.000 C485.198,857.501 535.561,762.174 519.000,685.000 C513.548,659.594 485.454,648.438 496.000,616.000 C503.597,592.632 540.739,597.688 565.000,591.000 C598.295,581.822 629.322,564.995 648.000,541.000 C671.830,510.385 695.916,436.562 675.000,382.000 C666.827,360.680 647.027,347.197 641.000,326.000 C636.554,310.365 643.472,299.125 646.000,286.000 C649.159,269.597 646.013,251.578 644.000,237.000 C643.667,237.000 643.333,237.000 643.000,237.000 C629.668,242.666 616.332,248.334 603.000,254.000 C588.215,262.735 575.246,276.125 555.000,279.000 C539.668,275.667 524.332,272.333 509.000,269.000 C494.668,267.667 480.332,266.333 466.000,265.000 C435.733,260.087 398.665,266.267 374.000,272.000 C364.001,274.333 353.999,276.667 344.000,279.000 C324.789,276.506 312.629,264.256 299.000,256.000 C284.335,249.667 269.665,243.333 255.000,237.000 C255.000,237.667 255.000,238.333 255.000,239.000 C241.479,268.621 265.531,300.330 258.000,326.000 C251.304,348.826 229.606,362.403 222.000,387.000 C199.373,460.174 237.476,535.764 275.000,564.000 C294.098,578.371 319.873,588.047 347.000,594.000 C363.959,597.722 389.378,595.166 398.000,607.000 C418.943,635.746 388.229,656.952 381.000,677.000 C374.760,694.306 378.824,708.270 361.000,714.000 C361.333,714.667 361.667,715.333 362.000,716.000 C390.025,725.272 381.163,850.170 358.000,864.000 C332.717,879.096 303.099,868.932 280.000,860.000 C224.995,838.730 183.794,808.637 142.000,775.000 C53.930,704.118 -29.978,519.765 12.000,352.000 C36.221,255.203 79.774,168.035 147.000,114.000 C195.013,75.408 247.173,42.143 313.000,21.000 C338.997,15.334 365.003,9.666 391.000,4.000 C400.666,3.000 410.334,2.000 420.000,1.000 ZM326.000,821.000 C325.667,802.668 325.333,784.332 325.000,766.000 C267.309,770.270 222.596,759.523 198.000,725.000 C185.084,706.870 179.329,683.762 167.000,666.000 C151.302,643.384 117.238,642.877 128.000,601.000 C208.334,550.151 233.602,654.240 282.000,674.000 C297.196,680.204 317.258,673.212 330.000,671.000 C332.666,662.334 335.334,653.666 338.000,645.000 C338.000,644.667 338.000,644.333 338.000,644.000 C254.652,638.536 189.413,572.903 173.000,499.000 C158.135,432.065 165.894,342.258 206.000,309.000 C192.909,283.298 202.030,198.139 221.000,187.000 C245.482,172.625 308.506,199.133 323.000,208.000 C331.666,213.666 340.334,219.334 349.000,225.000 C361.665,222.334 374.335,219.666 387.000,217.000 C416.583,211.033 454.835,215.835 486.000,214.000 C507.331,217.333 528.669,220.667 550.000,224.000 C572.128,218.435 644.508,161.275 680.000,189.000 C704.649,208.255 695.816,274.718 694.000,311.000 C707.242,322.161 712.822,339.516 720.000,357.000 C756.134,445.018 717.231,559.231 665.000,601.000 C644.627,617.292 617.442,629.265 590.000,638.000 C580.001,640.333 569.999,642.667 560.000,645.000 C580.090,685.030 572.062,762.958 572.000,821.000 C601.454,815.991 629.976,797.094 652.000,783.000 C755.976,716.462 797.174,648.115 836.000,523.000 C846.577,488.916 846.171,404.210 836.000,370.000 C796.843,238.297 752.573,179.406 647.000,108.000 C601.307,77.095 552.553,66.783 484.000,55.000 C467.721,52.202 438.298,49.462 419.000,53.000 C387.223,58.826 352.936,58.975 326.000,71.000 C193.814,130.013 113.912,199.708 67.000,344.000 C58.271,370.850 60.402,396.120 55.000,430.000 C50.103,460.714 54.634,503.210 63.000,527.000 C69.810,546.367 70.157,566.690 79.000,587.000 C110.285,658.851 151.257,714.760 210.000,759.000 C236.991,779.327 286.429,816.672 326.000,821.000 Z"/>
</svg>