<svg 
 xmlns="http://www.w3.org/2000/svg"
 xmlns:xlink="http://www.w3.org/1999/xlink"
 width="1303px" height="1095px">
<path fill-rule="evenodd"  fill="rgb(0, 0, 0)"
 d="M557.000,278.000 C558.297,253.104 569.706,230.605 577.000,210.000 C591.068,170.260 603.006,137.639 626.000,108.000 C662.355,61.138 801.374,-14.737 900.000,3.000 C927.426,7.932 950.707,15.768 974.000,24.000 C1007.874,35.971 1049.008,44.007 1071.000,68.000 C1108.870,50.264 1145.410,32.563 1189.000,19.000 C1200.999,23.333 1213.001,27.667 1225.000,32.000 C1233.999,34.666 1243.001,37.334 1252.000,40.000 C1258.999,61.331 1266.001,82.669 1273.000,104.000 C1270.334,111.666 1267.666,119.334 1265.000,127.000 C1270.999,129.333 1277.001,131.667 1283.000,134.000 C1289.333,152.665 1295.667,171.335 1302.000,190.000 C1305.889,207.012 1293.302,225.791 1289.000,238.000 C1268.637,295.786 1225.936,321.866 1189.000,362.000 C1186.432,455.704 1162.924,530.838 1138.000,602.000 C1045.139,867.134 887.330,1000.470 605.000,1076.000 C440.041,1120.130 257.127,1076.951 135.000,1027.000 C112.730,1017.891 29.309,983.635 20.000,969.000 C17.334,960.001 14.666,950.999 12.000,942.000 C8.334,932.001 4.666,921.999 1.000,912.000 C-3.048,893.186 16.514,861.793 20.000,844.000 C41.331,836.667 62.669,829.333 84.000,822.000 C91.333,823.333 98.667,824.667 106.000,826.000 C129.990,831.160 207.406,824.994 220.000,817.000 C181.226,798.061 124.459,688.617 129.000,636.000 C91.401,612.887 65.035,522.035 51.000,473.000 C46.626,457.718 39.396,430.394 44.000,411.000 C51.666,389.335 59.334,367.664 67.000,346.000 C63.334,336.001 59.666,325.999 56.000,316.000 C52.667,298.002 49.333,279.998 46.000,262.000 C36.852,207.692 64.838,146.352 79.000,110.000 C84.003,97.157 88.196,71.829 99.000,65.000 C118.998,58.334 139.002,51.666 159.000,45.000 C167.666,47.666 176.334,50.334 185.000,53.000 C197.999,57.000 211.001,61.000 224.000,65.000 C241.665,84.665 259.335,104.335 277.000,124.000 C336.363,179.556 454.091,270.865 557.000,278.000 ZM858.000,85.000 C849.001,86.000 839.999,87.000 831.000,88.000 C812.002,92.145 793.505,96.870 777.000,104.000 C694.900,139.467 610.752,243.253 643.000,372.000 C608.354,372.367 573.101,365.966 544.000,359.000 C423.201,330.083 338.941,285.740 256.000,222.000 C231.340,203.049 174.689,155.174 162.000,128.000 C161.333,128.333 160.667,128.667 160.000,129.000 C151.756,154.040 138.447,177.087 132.000,207.000 C114.142,289.856 154.028,358.700 187.000,400.000 C201.999,413.332 217.002,426.668 232.000,440.000 C188.701,438.910 158.638,423.612 128.000,411.000 C126.941,516.705 184.920,585.719 254.000,622.000 C272.347,631.636 293.989,633.607 314.000,643.000 C313.333,643.000 312.667,643.000 312.000,643.000 C297.247,650.403 263.804,654.302 242.000,651.000 C231.334,650.000 220.666,649.000 210.000,648.000 C242.223,733.856 311.177,808.428 427.000,809.000 C416.277,821.293 399.140,829.145 385.000,838.000 C330.469,872.149 270.812,892.131 194.000,906.000 C169.336,907.000 144.664,908.000 120.000,909.000 C107.668,908.333 95.332,907.667 83.000,907.000 C83.667,907.000 84.333,907.000 85.000,907.000 C106.002,927.715 142.515,940.587 171.000,953.000 C303.629,1010.799 483.768,1031.747 644.000,982.000 C910.094,899.385 1103.047,663.627 1105.000,315.000 C1136.006,297.501 1206.651,228.237 1220.000,195.000 C1202.786,202.720 1109.967,237.740 1088.000,230.000 C1088.667,230.000 1089.333,230.000 1090.000,230.000 C1138.919,187.368 1162.571,171.550 1189.000,104.000 C1188.667,103.667 1188.333,103.333 1188.000,103.000 C1146.195,127.404 1097.067,149.860 1041.000,159.000 C1005.512,112.737 939.527,84.859 858.000,85.000 Z"/>
</svg>